<?xml version="1.0" encoding="UTF-8"?>
<svg xmlns="http://www.w3.org/2000/svg" xmlns:xlink="http://www.w3.org/1999/xlink" width="30px" height="30px" viewBox="0 0 30 30" version="1.1">
<g id="surface1">
<path style=" stroke:none;fill-rule:nonzero;fill:rgb(0%,0%,0%);fill-opacity:1;" d="M 29.816406 6.265625 C 29.644531 6.019531 29.367188 5.867188 29.070312 5.855469 L 10.464844 5.054688 C 9.933594 5.03125 9.484375 5.441406 9.464844 5.972656 C 9.441406 6.503906 9.851562 6.953125 10.382812 6.976562 L 27.726562 7.722656 L 24.316406 18.363281 L 9.140625 18.363281 L 6.398438 3.433594 C 6.339844 3.109375 6.113281 2.835938 5.804688 2.714844 L 1.316406 0.949219 C 0.820312 0.753906 0.261719 1 0.0664062 1.492188 C -0.128906 1.988281 0.117188 2.546875 0.609375 2.742188 L 4.601562 4.308594 L 7.394531 19.5 C 7.476562 19.957031 7.875 20.289062 8.339844 20.289062 L 8.800781 20.289062 L 7.746094 23.222656 C 7.65625 23.46875 7.695312 23.742188 7.84375 23.957031 C 7.996094 24.167969 8.238281 24.296875 8.5 24.296875 L 9.242188 24.296875 C 8.78125 24.808594 8.5 25.480469 8.5 26.222656 C 8.5 27.8125 9.796875 29.109375 11.386719 29.109375 C 12.976562 29.109375 14.273438 27.8125 14.273438 26.222656 C 14.273438 25.480469 13.992188 24.808594 13.53125 24.296875 L 19.824219 24.296875 C 19.367188 24.808594 19.085938 25.480469 19.085938 26.222656 C 19.085938 27.8125 20.378906 29.109375 21.972656 29.109375 C 23.5625 29.109375 24.859375 27.8125 24.859375 26.222656 C 24.859375 25.480469 24.578125 24.808594 24.117188 24.296875 L 25.019531 24.296875 C 25.460938 24.296875 25.820312 23.9375 25.820312 23.496094 C 25.820312 23.050781 25.460938 22.691406 25.019531 22.691406 L 9.640625 22.691406 L 10.507812 20.289062 L 25.019531 20.289062 C 25.4375 20.289062 25.808594 20.015625 25.933594 19.617188 L 29.945312 7.109375 C 30.035156 6.824219 29.988281 6.511719 29.816406 6.265625 Z M 11.386719 27.503906 C 10.679688 27.503906 10.105469 26.929688 10.105469 26.222656 C 10.105469 25.515625 10.679688 24.9375 11.386719 24.9375 C 12.09375 24.9375 12.667969 25.515625 12.667969 26.222656 C 12.667969 26.929688 12.09375 27.503906 11.386719 27.503906 Z M 21.972656 27.503906 C 21.265625 27.503906 20.6875 26.929688 20.6875 26.222656 C 20.6875 25.515625 21.265625 24.9375 21.972656 24.9375 C 22.679688 24.9375 23.253906 25.515625 23.253906 26.222656 C 23.253906 26.929688 22.679688 27.503906 21.972656 27.503906 Z M 21.972656 27.503906 "/>
</g>
</svg>
