<?xml version="1.0" encoding="UTF-8"?>
<svg xmlns="http://www.w3.org/2000/svg" xmlns:xlink="http://www.w3.org/1999/xlink" width="20px" height="20px" viewBox="0 0 20 20" version="1.1">
<defs>
<filter id="alpha" filterUnits="objectBoundingBox" x="0%" y="0%" width="100%" height="100%">
  <feColorMatrix type="matrix" in="SourceGraphic" values="0 0 0 0 1 0 0 0 0 1 0 0 0 0 1 0 0 0 1 0"/>
</filter>
<mask id="mask0">
  <g filter="url(#alpha)">
<rect x="0" y="0" width="20" height="20" style="fill:rgb(0%,0%,0%);fill-opacity:0.992157;stroke:none;"/>
  </g>
</mask>
<clipPath id="clip1">
  <rect x="0" y="0" width="20" height="20"/>
</clipPath>
<g id="surface5" clip-path="url(#clip1)">
<path style=" stroke:none;fill-rule:evenodd;fill:rgb(99.607843%,99.607843%,99.607843%);fill-opacity:1;" d="M 8.988281 -0.0117188 C 8.996094 -0.0117188 9.003906 -0.0117188 9.011719 -0.0117188 C 9.015625 0.015625 9.023438 0.015625 9.03125 -0.0117188 C 9.574219 -0.0117188 10.117188 -0.0117188 10.664062 -0.0117188 C 10.683594 0.015625 10.703125 0.015625 10.722656 -0.0117188 C 10.738281 -0.0117188 10.75 -0.0117188 10.765625 -0.0117188 C 13.003906 0.179688 15.003906 1.050781 16.765625 2.597656 C 18.625 4.347656 19.6875 6.453125 19.949219 8.917969 C 19.960938 8.96875 19.972656 9.015625 19.988281 9.0625 C 19.988281 9.070312 19.988281 9.074219 19.988281 9.082031 C 19.960938 9.101562 19.960938 9.125 19.988281 9.144531 C 19.988281 9.707031 19.988281 10.273438 19.988281 10.835938 C 19.960938 10.855469 19.960938 10.875 19.988281 10.898438 C 19.988281 10.902344 19.988281 10.910156 19.988281 10.917969 C 19.671875 13.742188 18.398438 16.066406 16.171875 17.898438 C 14.558594 19.144531 12.761719 19.84375 10.785156 19.988281 C 10.777344 19.988281 10.773438 19.988281 10.765625 19.988281 C 10.738281 19.960938 10.710938 19.960938 10.683594 19.988281 C 10.152344 19.988281 9.621094 19.988281 9.09375 19.988281 C 9.070312 19.960938 9.050781 19.960938 9.03125 19.988281 C 9.015625 19.988281 9.003906 19.988281 8.988281 19.988281 C 6.113281 19.664062 3.75 18.300781 1.898438 15.90625 C 0.804688 14.382812 0.171875 12.726562 -0.0117188 10.9375 C -0.0117188 10.925781 -0.0117188 10.910156 -0.0117188 10.898438 C 0.015625 10.882812 0.015625 10.871094 -0.0117188 10.855469 C -0.0117188 10.285156 -0.0117188 9.714844 -0.0117188 9.144531 C 0.015625 9.128906 0.015625 9.117188 -0.0117188 9.101562 C -0.0117188 9.089844 -0.0117188 9.074219 -0.0117188 9.0625 C 0.363281 5.917969 1.867188 3.433594 4.5 1.609375 C 5.871094 0.714844 7.332031 0.1875 8.886719 0.03125 C 8.925781 0.0195312 8.960938 0.0078125 8.988281 -0.0117188 Z M 9.519531 1.328125 C 11.917969 1.234375 14.0625 2.011719 15.949219 3.671875 C 17.519531 5.214844 18.40625 7.050781 18.601562 9.175781 C 18.722656 10.386719 18.605469 11.550781 18.246094 12.671875 C 17.328125 15.292969 15.589844 17.109375 13.03125 18.125 C 12.445312 18.355469 11.859375 18.511719 11.265625 18.585938 C 11.246094 18.582031 11.222656 18.574219 11.203125 18.566406 C 11.082031 18.582031 10.960938 18.597656 10.835938 18.609375 C 10.234375 18.605469 9.632812 18.605469 9.03125 18.609375 C 8.425781 18.558594 7.832031 18.429688 7.253906 18.226562 C 6.449219 17.9375 5.6875 17.558594 4.96875 17.09375 C 2.167969 14.917969 0.992188 12.097656 1.4375 8.640625 C 1.691406 7.011719 2.378906 5.539062 3.511719 4.214844 C 5.070312 2.546875 6.925781 1.605469 9.082031 1.390625 C 9.226562 1.382812 9.375 1.359375 9.519531 1.328125 Z M 9.519531 1.328125 "/>
</g>
</defs>
<g id="surface1">
<use xlink:href="#surface5" mask="url(#mask0)"/>
<path style=" stroke:none;fill-rule:evenodd;fill:rgb(60%,79.607843%,99.607843%);fill-opacity:1;" d="M 12.683594 9.640625 C 11.996094 9.671875 11.3125 9.695312 10.621094 9.699219 C 10.601562 12.019531 10.59375 14.34375 10.601562 16.671875 C 10.300781 16.664062 10 16.671875 9.703125 16.691406 C 9.140625 16.679688 8.574219 16.664062 8.011719 16.648438 C 8.003906 14.375 7.988281 12.097656 7.96875 9.824219 C 7.988281 9.78125 7.996094 9.734375 7.988281 9.679688 C 7.539062 9.679688 7.09375 9.679688 6.644531 9.679688 C 6.644531 8.984375 6.644531 8.292969 6.644531 7.597656 C 7.078125 7.597656 7.511719 7.597656 7.949219 7.597656 C 7.960938 6.804688 8.007812 6.015625 8.082031 5.226562 C 8.136719 4.714844 8.34375 4.285156 8.703125 3.929688 C 9.226562 3.40625 9.859375 3.15625 10.601562 3.1875 C 11.3125 3.195312 12.019531 3.246094 12.722656 3.339844 C 12.835938 3.359375 12.945312 3.390625 13.050781 3.433594 C 13.066406 3.757812 13.042969 4.082031 12.980469 4.402344 C 12.929688 4.757812 12.871094 5.113281 12.804688 5.464844 C 12.59375 5.460938 12.382812 5.445312 12.171875 5.421875 C 11.921875 5.410156 11.671875 5.410156 11.417969 5.421875 C 10.910156 5.433594 10.65625 5.699219 10.652344 6.214844 C 10.625 6.675781 10.617188 7.136719 10.621094 7.597656 C 11.371094 7.597656 12.117188 7.597656 12.867188 7.597656 C 12.847656 8.074219 12.816406 8.546875 12.777344 9.019531 C 12.761719 9.230469 12.734375 9.4375 12.683594 9.640625 Z M 12.683594 9.640625 "/>
<path style=" stroke:none;fill-rule:evenodd;fill:rgb(61.568627%,74.901961%,88.235294%);fill-opacity:1;" d="M 6.644531 7.597656 C 6.644531 8.292969 6.644531 8.984375 6.644531 9.679688 C 7.09375 9.679688 7.539062 9.679688 7.988281 9.679688 C 7.996094 9.734375 7.988281 9.78125 7.96875 9.824219 C 7.96875 9.785156 7.96875 9.742188 7.96875 9.699219 C 7.519531 9.699219 7.070312 9.699219 6.621094 9.699219 C 6.617188 8.996094 6.621094 8.296875 6.644531 7.597656 Z M 6.644531 7.597656 "/>
<path style=" stroke:none;fill-rule:evenodd;fill:rgb(57.254902%,73.333333%,89.019608%);fill-opacity:1;" d="M 12.683594 9.640625 C 12.683594 9.660156 12.683594 9.679688 12.683594 9.699219 C 11.996094 9.699219 11.308594 9.699219 10.621094 9.699219 C 11.3125 9.695312 11.996094 9.671875 12.683594 9.640625 Z M 12.683594 9.640625 "/>
<path style=" stroke:none;fill-rule:evenodd;fill:rgb(58.039216%,74.117647%,90.196078%);fill-opacity:1;" d="M 10.621094 9.699219 C 10.621094 12.03125 10.621094 14.359375 10.621094 16.691406 C 10.316406 16.691406 10.011719 16.691406 9.703125 16.691406 C 10 16.671875 10.300781 16.664062 10.601562 16.671875 C 10.59375 14.34375 10.601562 12.019531 10.621094 9.699219 Z M 10.621094 9.699219 "/>
</g>
</svg>
