<?xml version="1.0" encoding="UTF-8"?>
<svg xmlns="http://www.w3.org/2000/svg" xmlns:xlink="http://www.w3.org/1999/xlink" width="20px" height="20px" viewBox="0 0 20 20" version="1.1">
<defs>
<filter id="alpha" filterUnits="objectBoundingBox" x="0%" y="0%" width="100%" height="100%">
  <feColorMatrix type="matrix" in="SourceGraphic" values="0 0 0 0 1 0 0 0 0 1 0 0 0 0 1 0 0 0 1 0"/>
</filter>
<mask id="mask0">
  <g filter="url(#alpha)">
<rect x="0" y="0" width="20" height="20" style="fill:rgb(0%,0%,0%);fill-opacity:0.854902;stroke:none;"/>
  </g>
</mask>
<clipPath id="clip1">
  <rect x="0" y="0" width="20" height="20"/>
</clipPath>
<g id="surface5" clip-path="url(#clip1)">
<path style=" stroke:none;fill-rule:evenodd;fill:rgb(99.215686%,99.607843%,99.607843%);fill-opacity:1;" d="M 5.410156 2.785156 C 8.472656 2.730469 11.53125 2.785156 14.589844 2.949219 C 15.285156 3.320312 15.886719 3.808594 16.394531 4.425781 C 17.375 7.671875 17.484375 10.949219 16.722656 14.261719 C 16.199219 15.753906 15.164062 16.683594 13.605469 17.050781 C 11.203125 17.269531 8.796875 17.269531 6.394531 17.050781 C 4.558594 16.871094 3.300781 15.941406 2.621094 14.261719 C 2.320312 11.066406 2.429688 7.898438 2.949219 4.753906 C 3.652344 3.882812 4.46875 3.230469 5.410156 2.785156 Z M 5.410156 2.785156 "/>
</g>
</defs>
<g id="surface1">
<use xlink:href="#surface5" mask="url(#mask0)"/>
<path style=" stroke:none;fill-rule:evenodd;fill:rgb(60%,79.215686%,98.431373%);fill-opacity:1;" d="M 7.378906 3.441406 C 9.46875 3.40625 11.546875 3.570312 13.605469 3.933594 C 15.40625 5.121094 16.171875 6.816406 15.902344 9.015625 C 15.820312 10.664062 15.65625 12.304688 15.410156 13.933594 C 14.925781 14.972656 14.105469 15.574219 12.949219 15.738281 C 10.527344 16 8.125 15.890625 5.738281 15.410156 C 4.699219 14.925781 4.101562 14.105469 3.933594 12.949219 C 3.714844 10.65625 3.714844 8.359375 3.933594 6.066406 C 4.527344 4.433594 5.675781 3.558594 7.378906 3.441406 Z M 7.378906 3.441406 "/>
<path style=" stroke:none;fill-rule:evenodd;fill:rgb(96.078431%,96.862745%,98.039216%);fill-opacity:1;" d="M 12.949219 5.082031 C 14.105469 4.980469 14.542969 5.417969 14.261719 6.394531 C 12.945312 6.816406 12.507812 6.378906 12.949219 5.082031 Z M 12.949219 5.082031 "/>
<path style=" stroke:none;fill-rule:evenodd;fill:rgb(98.039216%,98.431373%,98.823529%);fill-opacity:1;" d="M 9.015625 6.066406 C 12.25 6.183594 13.617188 7.820312 13.113281 10.984375 C 11.714844 13.402344 9.804688 13.894531 7.378906 12.460938 C 6.984375 12.164062 6.710938 11.78125 6.558594 11.3125 C 5.730469 8.714844 6.550781 6.96875 9.015625 6.066406 Z M 9.015625 6.066406 "/>
<path style=" stroke:none;fill-rule:evenodd;fill:rgb(60%,79.215686%,98.431373%);fill-opacity:1;" d="M 8.6875 7.378906 C 10.6875 7.242188 11.886719 8.167969 12.296875 10.164062 C 11.847656 11.929688 10.753906 12.585938 9.015625 12.132812 C 6.988281 10.648438 6.878906 9.0625 8.6875 7.378906 Z M 8.6875 7.378906 "/>
</g>
</svg>
