<?xml version="1.0" encoding="UTF-8"?>
<svg xmlns="http://www.w3.org/2000/svg" xmlns:xlink="http://www.w3.org/1999/xlink" width="61px" height="61px" viewBox="0 0 61 61" version="1.1">
<g id="surface1">
<path style=" stroke:none;fill-rule:nonzero;fill:rgb(100%,100%,100%);fill-opacity:1;" d="M 42.824219 9.328125 C 37.136719 9.28125 31.441406 9.058594 25.746094 9.199219 C 19.148438 9.363281 14.003906 9.761719 10.109375 15.035156 C 9.089844 17.550781 8.574219 20.488281 8.328125 23.550781 C 8.28125 24.359375 8.234375 25.1875 8.179688 26.042969 C 7.96875 31.246094 8.316406 36.617188 8.203125 40.875 C 8.75 43.667969 9.828125 46.183594 11.839844 48.101562 C 18.507812 54.453125 32.074219 52.476562 40.964844 52.125 C 45.230469 50.570312 48.789062 49.285156 50.695312 44.40625 C 52.203125 40.570312 51.957031 35.679688 52.0625 31.5625 C 52.261719 23.09375 52.636719 11.410156 42.824219 9.328125 Z M 42.824219 9.328125 "/>
<path style=" stroke:none;fill-rule:nonzero;fill:rgb(0%,0%,0%);fill-opacity:1;" d="M 40.214844 12.347656 C 51.570312 13.808594 48.238281 30.265625 47.921875 38.242188 C 47.746094 42.628906 46.964844 46.019531 42.4375 47.539062 C 36.484375 49.539062 27.710938 48.875 21.640625 47.984375 C 17.582031 47.398438 14.402344 46.183594 13.277344 41.972656 C 11.5 35.316406 12.003906 26.3125 12.773438 19.527344 C 12.796875 19.398438 12.832031 19.304688 12.890625 19.222656 C 12.996094 9.070312 34.308594 11.585938 40.214844 12.347656 Z M 40.214844 12.347656 "/>
<path style=" stroke:none;fill-rule:nonzero;fill:rgb(100%,100%,100%);fill-opacity:1;" d="M 44.929688 18.535156 C 44.953125 15.738281 41.464844 14.847656 39.59375 16.570312 C 39.089844 17.035156 38.855469 17.75 38.824219 18.523438 C 39.007812 19.515625 39.605469 20.5 40.378906 21.058594 C 42.191406 22.335938 44.90625 20.640625 44.929688 18.535156 Z M 44.929688 18.535156 "/>
<path style=" stroke:none;fill-rule:nonzero;fill:rgb(100%,100%,100%);fill-opacity:1;" d="M 39.746094 23.972656 C 35.746094 17.914062 26.714844 17.316406 21.863281 22.6875 C 18.550781 26.347656 18.320312 32.441406 20.808594 36.769531 C 20.949219 36.816406 21.078125 36.898438 21.195312 37.039062 C 25.242188 41.550781 32.214844 43.1875 37.21875 39.097656 C 41.6875 35.433594 43 28.894531 39.746094 23.972656 Z M 39.746094 23.972656 "/>
<path style=" stroke:none;fill-rule:nonzero;fill:rgb(0%,0%,0%);fill-opacity:1;" d="M 23.804688 32.277344 C 25.21875 36.253906 30.25 39.410156 34.261719 36.957031 C 42.367188 31.996094 32.84375 18.523438 26.167969 24.5 C 23.804688 25.890625 22.878906 29.667969 23.804688 32.277344 Z M 23.804688 32.277344 "/>
</g>
</svg>
