<?xml version="1.0" encoding="UTF-8"?>
<!DOCTYPE svg PUBLIC "-//W3C//DTD SVG 1.1//EN" "http://www.w3.org/Graphics/SVG/1.1/DTD/svg11.dtd">
<svg xmlns="http://www.w3.org/2000/svg" version="1.1" width="254px" height="25px" style="shape-rendering:geometricPrecision; text-rendering:geometricPrecision; image-rendering:optimizeQuality; fill-rule:evenodd; clip-rule:evenodd" xmlns:xlink="http://www.w3.org/1999/xlink">
<g><path style="opacity:1" fill="#99ccff" d="M -0.5,-0.5 C 0.5,-0.5 1.5,-0.5 2.5,-0.5C 2.5,6.83333 2.5,14.1667 2.5,21.5C 9.83333,21.5 17.1667,21.5 24.5,21.5C 24.5,22.5 24.5,23.5 24.5,24.5C 16.1667,24.5 7.83333,24.5 -0.5,24.5C -0.5,16.1667 -0.5,7.83333 -0.5,-0.5 Z"/></g>
<g><path style="opacity:1" fill="#99ccff" d="M 251.5,-0.5 C 252.167,-0.5 252.833,-0.5 253.5,-0.5C 253.5,7.83333 253.5,16.1667 253.5,24.5C 245.5,24.5 237.5,24.5 229.5,24.5C 229.5,23.5 229.5,22.5 229.5,21.5C 236.833,21.5 244.167,21.5 251.5,21.5C 251.5,14.1667 251.5,6.83333 251.5,-0.5 Z"/></g>
</svg>
