<?xml version="1.0" encoding="UTF-8"?>
<!DOCTYPE svg PUBLIC "-//W3C//DTD SVG 1.1//EN" "http://www.w3.org/Graphics/SVG/1.1/DTD/svg11.dtd">
<svg xmlns="http://www.w3.org/2000/svg" version="1.1" width="255px" height="25px" style="shape-rendering:geometricPrecision; text-rendering:geometricPrecision; image-rendering:optimizeQuality; fill-rule:evenodd; clip-rule:evenodd" xmlns:xlink="http://www.w3.org/1999/xlink">
<g><path style="opacity:1" fill="#99ccff" d="M -0.5,-0.5 C 7.83333,-0.5 16.1667,-0.5 24.5,-0.5C 24.5,0.5 24.5,1.5 24.5,2.5C 17.1667,2.5 9.83333,2.5 2.5,2.5C 2.5,9.83333 2.5,17.1667 2.5,24.5C 1.5,24.5 0.5,24.5 -0.5,24.5C -0.5,16.1667 -0.5,7.83333 -0.5,-0.5 Z"/></g>
<g><path style="opacity:1" fill="#99ccff" d="M 229.5,-0.5 C 237.833,-0.5 246.167,-0.5 254.5,-0.5C 254.5,7.83333 254.5,16.1667 254.5,24.5C 253.5,24.5 252.5,24.5 251.5,24.5C 251.5,17.1667 251.5,9.83333 251.5,2.5C 244.167,2.5 236.833,2.5 229.5,2.5C 229.5,1.5 229.5,0.5 229.5,-0.5 Z"/></g>
</svg>
