<?xml version="1.0" encoding="UTF-8"?>
<svg xmlns="http://www.w3.org/2000/svg" xmlns:xlink="http://www.w3.org/1999/xlink" width="201px" height="33px" viewBox="0 0 202 33" version="1.1">
<defs>
<filter id="alpha" filterUnits="objectBoundingBox" x="0%" y="0%" width="100%" height="100%">
  <feColorMatrix type="matrix" in="SourceGraphic" values="0 0 0 0 1 0 0 0 0 1 0 0 0 0 1 0 0 0 1 0"/>
</filter>
<mask id="mask0">
  <g filter="url(#alpha)">
<rect x="0" y="0" width="202" height="33" style="fill:rgb(0%,0%,0%);fill-opacity:0.996078;stroke:none;"/>
  </g>
</mask>
<clipPath id="clip1">
  <rect x="0" y="0" width="202" height="33"/>
</clipPath>
<g id="surface5" clip-path="url(#clip1)">
<path style=" stroke:none;fill-rule:evenodd;fill:rgb(60%,79.607843%,99.607843%);fill-opacity:1;" d="M 40.191406 1.054688 C 41.703125 0.851562 42.875 1.386719 43.699219 2.652344 C 43.898438 3.09375 44.019531 3.550781 44.0625 4.035156 C 44.109375 11.8125 44.109375 19.589844 44.0625 27.367188 C 43.816406 29.285156 42.730469 30.300781 40.804688 30.417969 C 39.089844 30.382812 38.027344 29.535156 37.621094 27.875 C 37.574219 19.78125 37.574219 11.691406 37.621094 3.597656 C 37.941406 2.199219 38.796875 1.347656 40.191406 1.054688 Z M 40.191406 1.054688 "/>
</g>
</defs>
<g id="surface1">
<use xlink:href="#surface5" mask="url(#mask0)"/>
<path style=" stroke:none;fill-rule:evenodd;fill:rgb(60%,79.607843%,99.607843%);fill-opacity:1;" d="M 52.707031 1.125 C 54.097656 0.984375 55.269531 1.417969 56.214844 2.433594 C 60.019531 8.601562 63.804688 14.78125 67.574219 20.96875 C 67.574219 15.03125 67.625 9.09375 67.71875 3.160156 C 68.097656 1.933594 68.929688 1.265625 70.214844 1.164062 C 72.472656 1.03125 73.652344 2.097656 73.761719 4.359375 C 73.761719 11.726562 73.761719 19.09375 73.761719 26.457031 C 73.8125 27.734375 73.402344 28.824219 72.53125 29.730469 C 72.101562 30.066406 71.621094 30.28125 71.082031 30.382812 C 70.089844 30.542969 69.101562 30.519531 68.117188 30.3125 C 67.59375 30.125 67.144531 29.824219 66.777344 29.402344 C 63 23.332031 59.234375 17.25 55.492188 11.15625 C 55.46875 16.707031 55.445312 22.253906 55.417969 27.804688 C 55.230469 29.375 54.347656 30.234375 52.777344 30.382812 C 51.542969 30.550781 50.542969 30.152344 49.777344 29.183594 C 49.53125 28.757812 49.386719 28.296875 49.34375 27.804688 C 49.316406 19.902344 49.292969 12.003906 49.269531 4.105469 C 49.425781 2.640625 50.210938 1.707031 51.621094 1.308594 C 51.996094 1.253906 52.355469 1.195312 52.707031 1.125 Z M 52.707031 1.125 "/>
<path style=" stroke:none;fill-rule:evenodd;fill:rgb(40%,70.196078%,100%);fill-opacity:1;" d="M 88.011719 1.273438 C 91.226562 1.246094 94.195312 2.128906 96.914062 3.925781 C 97.832031 4.632812 98.566406 5.492188 99.117188 6.503906 C 99.886719 8.511719 99.273438 9.878906 97.273438 10.613281 C 96.382812 10.855469 95.5625 10.710938 94.8125 10.175781 C 94.066406 9.351562 93.292969 8.550781 92.5 7.777344 C 90.828125 6.683594 88.996094 6.269531 87 6.542969 C 85.917969 6.644531 84.992188 7.066406 84.214844 7.8125 C 83.523438 8.777344 83.425781 9.796875 83.925781 10.867188 C 84.484375 11.480469 85.171875 11.90625 85.988281 12.140625 C 88.628906 12.789062 91.28125 13.394531 93.945312 13.957031 C 96.347656 14.511719 98.265625 15.785156 99.699219 17.773438 C 101.1875 20.628906 101.1875 23.488281 99.699219 26.347656 C 98.191406 28.621094 96.09375 30.027344 93.402344 30.566406 C 90.230469 31.214844 87.0625 31.128906 83.890625 30.3125 C 81.996094 29.789062 80.367188 28.832031 79.003906 27.4375 C 78.234375 26.617188 77.726562 25.644531 77.488281 24.53125 C 77.242188 22.472656 78.136719 21.285156 80.164062 20.96875 C 81.140625 21.0625 81.9375 21.5 82.550781 22.277344 C 83.199219 23.257812 83.960938 24.140625 84.828125 24.933594 C 86.105469 25.789062 87.519531 26.1875 89.0625 26.132812 C 90.71875 26.207031 92.144531 25.671875 93.332031 24.53125 C 94.09375 23.460938 94.214844 22.324219 93.691406 21.117188 C 93.136719 20.378906 92.402344 19.90625 91.484375 19.699219 C 88.804688 19.007812 86.128906 18.304688 83.457031 17.589844 C 78.617188 16.121094 76.652344 12.886719 77.558594 7.886719 C 78.125 5.890625 79.269531 4.328125 80.996094 3.199219 C 83.183594 1.976562 85.523438 1.335938 88.011719 1.273438 Z M 88.011719 1.273438 "/>
<path style=" stroke:none;fill-rule:evenodd;fill:rgb(40%,70.196078%,100%);fill-opacity:1;" d="M 139.019531 1.273438 C 146.550781 1.238281 150.734375 5.039062 151.574219 12.683594 C 151.941406 16.121094 151.699219 19.511719 150.847656 22.859375 C 149.082031 28.386719 145.296875 31.152344 139.488281 31.144531 C 132.167969 31.109375 128.140625 27.402344 127.40625 20.023438 C 127.121094 17.414062 127.121094 14.820312 127.40625 12.246094 C 127.675781 9.511719 128.636719 7.0625 130.300781 4.90625 C 131.828125 3.238281 133.695312 2.160156 135.910156 1.671875 C 136.949219 1.472656 137.984375 1.335938 139.019531 1.273438 Z M 139.019531 6.652344 C 140.023438 6.621094 141.039062 6.78125 142.058594 7.125 C 143.25 7.640625 144.03125 8.523438 144.410156 9.777344 C 144.726562 10.820312 144.921875 11.886719 144.988281 12.976562 C 145.179688 15.769531 145.105469 18.554688 144.773438 21.332031 C 144.601562 22.695312 144.011719 23.824219 143 24.714844 C 142.230469 25.222656 141.386719 25.511719 140.464844 25.585938 C 139.152344 25.738281 137.871094 25.59375 136.632812 25.148438 C 135.574219 24.714844 134.863281 23.953125 134.496094 22.859375 C 134.15625 21.847656 133.964844 20.804688 133.917969 19.734375 C 133.90625 18.964844 133.871094 18.203125 133.808594 17.445312 C 133.832031 16.117188 133.867188 14.699219 133.917969 13.191406 C 133.972656 11.972656 134.191406 10.789062 134.570312 9.632812 C 135.023438 8.28125 135.925781 7.394531 137.285156 6.976562 C 137.863281 6.816406 138.441406 6.707031 139.019531 6.652344 Z M 139.019531 6.652344 "/>
<path style=" stroke:none;fill-rule:evenodd;fill:rgb(40%,70.196078%,100%);fill-opacity:1;" d="M 106.460938 2 C 109.960938 1.988281 113.457031 2 116.953125 2.035156 C 119.664062 2.125 121.945312 3.15625 123.789062 5.125 C 124.988281 6.722656 125.628906 8.527344 125.707031 10.539062 C 125.75 15.347656 123.484375 18.449219 118.90625 19.84375 C 118.269531 19.972656 117.628906 20.082031 116.988281 20.171875 C 114.675781 20.167969 112.347656 20.167969 110.007812 20.171875 C 110.019531 22.933594 110.007812 25.695312 109.972656 28.457031 C 109.375 30.484375 108.035156 31.34375 105.957031 31.039062 C 104.625 30.742188 103.792969 29.929688 103.460938 28.601562 C 103.339844 20.851562 103.316406 13.097656 103.386719 5.34375 C 103.511719 3.371094 104.535156 2.257812 106.460938 2 Z M 110.007812 7.085938 C 111.742188 7.074219 113.480469 7.085938 115.214844 7.125 C 118.1875 7.386719 119.453125 8.996094 119.015625 11.957031 C 118.53125 13.613281 117.433594 14.570312 115.722656 14.828125 C 115.464844 14.84375 115.210938 14.878906 114.964844 14.9375 C 113.324219 14.839844 111.683594 14.839844 110.042969 14.9375 C 110.007812 12.320312 109.996094 9.703125 110.007812 7.085938 Z M 110.007812 7.085938 "/>
<path style=" stroke:none;fill-rule:evenodd;fill:rgb(40%,70.196078%,100%);fill-opacity:1;" d="M 157.976562 2 C 161.761719 1.988281 165.546875 2 169.335938 2.035156 C 171.566406 2.0625 173.566406 2.742188 175.339844 4.070312 C 177.429688 6.0625 178.238281 8.496094 177.761719 11.375 C 177.300781 13.980469 175.867188 15.796875 173.457031 16.828125 C 175.484375 17.417969 176.605469 18.777344 176.824219 20.898438 C 176.886719 22.132812 176.960938 23.371094 177.039062 24.605469 C 177.292969 25.863281 177.546875 27.125 177.800781 28.382812 C 177.605469 29.707031 176.855469 30.542969 175.554688 30.890625 C 173.082031 31.265625 171.527344 30.238281 170.890625 27.804688 C 170.832031 27.398438 170.769531 27 170.707031 26.605469 C 170.792969 25.109375 170.660156 23.617188 170.3125 22.132812 C 169.90625 20.585938 168.902344 19.75 167.308594 19.625 C 165.332031 19.589844 163.355469 19.578125 161.375 19.589844 C 161.386719 22.425781 161.375 25.257812 161.339844 28.09375 C 161.015625 29.972656 159.90625 30.988281 158.011719 31.144531 C 156.273438 31.050781 155.191406 30.152344 154.753906 28.457031 C 154.707031 20.945312 154.707031 13.433594 154.753906 5.925781 C 154.886719 5.273438 155.03125 4.617188 155.191406 3.960938 C 155.75 2.777344 156.679688 2.125 157.976562 2 Z M 161.449219 7.085938 C 163.617188 7.074219 165.789062 7.085938 167.960938 7.125 C 170.179688 7.269531 171.3125 8.457031 171.359375 10.683594 C 171.34375 13.078125 170.136719 14.339844 167.742188 14.464844 C 165.644531 14.5 163.546875 14.511719 161.449219 14.5 C 161.449219 12.03125 161.449219 9.558594 161.449219 7.085938 Z M 161.449219 7.085938 "/>
<path style=" stroke:none;fill-rule:evenodd;fill:rgb(40%,70.196078%,100%);fill-opacity:1;" d="M 181.488281 2.070312 C 186.832031 2.070312 192.171875 2.070312 197.515625 2.070312 C 198.863281 2.152344 199.851562 2.785156 200.480469 3.960938 C 200.910156 5.605469 200.34375 6.753906 198.78125 7.414062 C 198.453125 7.53125 198.113281 7.605469 197.765625 7.632812 C 196.128906 7.667969 194.488281 7.679688 192.847656 7.667969 C 192.859375 14.523438 192.847656 21.382812 192.8125 28.238281 C 192.40625 29.992188 191.308594 30.914062 189.519531 31 C 188.296875 31 187.34375 30.488281 186.660156 29.476562 C 186.429688 29.066406 186.285156 28.632812 186.226562 28.167969 C 186.191406 21.332031 186.179688 14.5 186.191406 7.667969 C 184.40625 7.699219 182.621094 7.664062 180.835938 7.558594 C 178.710938 6.949219 178.023438 5.605469 178.777344 3.523438 C 179.453125 2.609375 180.359375 2.125 181.488281 2.070312 Z M 181.488281 2.070312 "/>
<path style=" stroke:none;fill-rule:evenodd;fill:rgb(59.607843%,79.607843%,99.607843%);fill-opacity:1;" d="M 28.035156 2.796875 C 29.398438 2.617188 30.21875 3.199219 30.496094 4.542969 C 30.414062 7.917969 30.414062 11.296875 30.496094 14.683594 C 30.488281 15.523438 30.101562 16.105469 29.335938 16.425781 C 27.125 16.445312 25.121094 17.097656 23.332031 18.390625 C 22.613281 18.917969 21.941406 19.5 21.308594 20.132812 C 19.621094 22.046875 17.859375 23.886719 16.027344 25.660156 C 12.511719 28.828125 8.390625 30.285156 3.652344 30.019531 C 3.121094 29.75 2.769531 29.324219 2.605469 28.746094 C 2.554688 25.039062 2.554688 21.332031 2.605469 17.625 C 2.777344 16.992188 3.175781 16.566406 3.796875 16.355469 C 6.148438 16.367188 8.269531 15.664062 10.164062 14.246094 C 10.636719 13.875 11.09375 13.488281 11.539062 13.082031 C 13.347656 11.21875 15.15625 9.351562 16.964844 7.488281 C 20.082031 4.566406 23.769531 3.003906 28.035156 2.796875 Z M 28.035156 2.796875 "/>
<path style=" stroke:none;fill-rule:evenodd;fill:rgb(40%,70.196078%,100%);fill-opacity:1;" d="M 26.226562 18.355469 C 29.328125 18.257812 31.535156 19.613281 32.847656 22.425781 C 33.871094 25.726562 32.96875 28.355469 30.132812 30.3125 C 27.085938 31.894531 24.398438 31.398438 22.066406 28.820312 C 20.21875 26.320312 20.125 23.75 21.777344 21.117188 C 22.890625 19.59375 24.375 18.671875 26.226562 18.355469 Z M 26.226562 18.355469 "/>
</g>
</svg>
