<?xml version="1.0" encoding="UTF-8"?>
<svg xmlns="http://www.w3.org/2000/svg" xmlns:xlink="http://www.w3.org/1999/xlink" width="201px" height="33px" viewBox="0 0 202 33" version="1.1">
<g id="surface1">
<path style=" stroke:none;fill-rule:nonzero;fill:rgb(0%,0%,0%);fill-opacity:1;" d="M 39.914062 1.242188 C 38.800781 1.503906 37.902344 2.527344 37.695312 3.761719 C 37.644531 4.109375 37.621094 7.660156 37.636719 16.050781 C 37.65625 26.980469 37.664062 27.878906 37.78125 28.214844 C 38.09375 29.121094 38.734375 29.820312 39.554688 30.144531 C 40.152344 30.386719 41.441406 30.394531 42.0625 30.160156 C 42.902344 29.839844 43.496094 29.238281 43.859375 28.332031 L 44.023438 27.921875 L 44.023438 3.523438 L 43.859375 3.117188 C 43.332031 1.792969 42.332031 1.15625 40.847656 1.167969 C 40.488281 1.175781 40.066406 1.207031 39.914062 1.242188 Z M 39.914062 1.242188 "/>
<path style=" stroke:none;fill-rule:nonzero;fill:rgb(0%,0%,0%);fill-opacity:1;" d="M 51.96875 1.34375 C 50.917969 1.53125 50.132812 2.0625 49.742188 2.832031 C 49.507812 3.289062 49.351562 3.988281 49.355469 4.503906 C 49.363281 4.71875 49.386719 10.160156 49.40625 16.59375 L 49.449219 28.285156 L 49.625 28.707031 C 50.066406 29.777344 51.050781 30.355469 52.417969 30.355469 C 53.785156 30.355469 54.789062 29.761719 55.21875 28.699219 L 55.382812 28.285156 L 55.40625 19.695312 C 55.414062 14.714844 55.449219 11.113281 55.484375 11.113281 C 55.519531 11.113281 58.039062 15.15625 61.070312 20.09375 C 67.167969 30.023438 67.054688 29.855469 67.972656 30.210938 C 68.558594 30.4375 70.382812 30.507812 71.132812 30.328125 C 72.4375 30.023438 73.203125 29.273438 73.558594 27.953125 C 73.671875 27.523438 73.6875 26.644531 73.703125 15.796875 C 73.722656 7.742188 73.703125 3.945312 73.652344 3.601562 C 73.414062 2.046875 72.386719 1.234375 70.664062 1.234375 C 69.167969 1.234375 68.203125 1.902344 67.792969 3.230469 C 67.71875 3.457031 67.691406 5.300781 67.675781 11.257812 C 67.660156 15.511719 67.652344 19.449219 67.652344 20.007812 C 67.648438 20.863281 67.632812 21.003906 67.546875 20.914062 C 67.496094 20.855469 66.777344 19.710938 65.96875 18.375 C 65.152344 17.039062 63.785156 14.792969 62.929688 13.398438 C 62.070312 11.996094 60.246094 9.011719 58.863281 6.753906 C 56.171875 2.347656 55.960938 2.054688 55.128906 1.632812 C 54.371094 1.25 53.125 1.132812 51.96875 1.34375 Z M 51.96875 1.34375 "/>
<path style=" stroke:none;fill-rule:nonzero;fill:rgb(0%,0%,0%);fill-opacity:1;" d="M 87.761719 1.503906 C 83.28125 1.742188 79.984375 3.371094 78.441406 6.109375 C 77.292969 8.148438 77.191406 11.359375 78.203125 13.472656 C 79.035156 15.207031 80.667969 16.5 83.058594 17.304688 C 83.476562 17.453125 85.574219 18.023438 87.722656 18.585938 C 89.871094 19.144531 91.769531 19.652344 91.941406 19.710938 C 93.359375 20.21875 94.113281 21.097656 94.183594 22.308594 C 94.265625 23.734375 93.511719 24.925781 92.070312 25.636719 C 91.285156 26.027344 90.566406 26.210938 89.570312 26.269531 C 87.660156 26.371094 86.023438 25.941406 84.816406 25.027344 C 84.28125 24.621094 83.933594 24.242188 83.019531 23.058594 C 82.636719 22.5625 82.195312 22.042969 82.042969 21.902344 C 81.015625 20.972656 79.425781 20.953125 78.40625 21.859375 C 78.269531 21.976562 78.050781 22.28125 77.914062 22.527344 C 77.695312 22.933594 77.667969 23.058594 77.644531 23.683594 C 77.507812 26.898438 80.921875 29.777344 85.84375 30.601562 C 88.121094 30.980469 90.894531 30.945312 93.085938 30.5 C 96.363281 29.832031 98.773438 28.132812 99.921875 25.664062 C 100.515625 24.402344 100.796875 22.652344 100.644531 21.183594 C 100.53125 20.082031 100.335938 19.347656 99.921875 18.484375 C 99.183594 16.9375 97.976562 15.804688 96.125 14.917969 C 95.015625 14.394531 94.089844 14.132812 90.835938 13.433594 C 87.421875 12.710938 86.914062 12.585938 86.058594 12.300781 C 84.859375 11.902344 84.097656 11.386719 83.746094 10.742188 C 83.550781 10.386719 83.527344 10.289062 83.527344 9.652344 C 83.527344 8.996094 83.542969 8.933594 83.800781 8.410156 C 84.113281 7.777344 84.535156 7.347656 85.199219 6.992188 C 85.945312 6.59375 86.582031 6.449219 87.804688 6.414062 C 89.597656 6.347656 90.914062 6.644531 92.058594 7.363281 C 92.636719 7.726562 93.121094 8.175781 94.148438 9.308594 C 94.710938 9.933594 94.945312 10.132812 95.3125 10.3125 C 96.636719 10.964844 98.46875 10.386719 99.082031 9.121094 C 99.480469 8.300781 99.351562 7.101562 98.742188 6.070312 C 98.375 5.433594 97.324219 4.363281 96.578125 3.863281 C 94.207031 2.273438 90.75 1.351562 87.761719 1.503906 Z M 87.761719 1.503906 "/>
<path style=" stroke:none;fill-rule:nonzero;fill:rgb(0%,0%,0%);fill-opacity:1;" d="M 138.730469 1.503906 C 136.675781 1.605469 134.742188 2.054688 133.332031 2.757812 C 130.757812 4.066406 128.90625 6.550781 128.050781 9.855469 C 127.574219 11.730469 127.398438 13.378906 127.398438 15.992188 C 127.398438 18.546875 127.523438 20.050781 127.878906 21.867188 C 128.964844 27.402344 132.015625 30.269531 137.464844 30.863281 C 138.40625 30.972656 140.5625 30.964844 141.421875 30.863281 C 146.074219 30.292969 149.15625 27.734375 150.617188 23.238281 C 151.753906 19.761719 151.949219 14.148438 151.066406 10.347656 C 149.742188 4.589844 146 1.621094 139.925781 1.503906 C 139.46875 1.496094 138.933594 1.496094 138.730469 1.503906 Z M 141.074219 6.71875 C 143.316406 7.191406 144.488281 8.613281 144.988281 11.472656 C 145.21875 12.816406 145.320312 15.824219 145.21875 18.242188 C 145.132812 20.261719 145.023438 21.191406 144.765625 22.128906 C 144.230469 24.054688 143.101562 25.191406 141.304688 25.613281 C 140.515625 25.804688 138.296875 25.796875 137.574219 25.605469 C 135.53125 25.078125 134.445312 23.792969 133.992188 21.367188 C 133.824219 20.464844 133.765625 19.1875 133.765625 16.484375 C 133.765625 13.609375 133.824219 12.476562 134.035156 11.328125 C 134.648438 7.902344 136.421875 6.457031 139.84375 6.585938 C 140.25 6.601562 140.808594 6.660156 141.074219 6.71875 Z M 141.074219 6.71875 "/>
<path style=" stroke:none;fill-rule:nonzero;fill:rgb(0%,0%,0%);fill-opacity:1;" d="M 106.195312 2.25 C 104.847656 2.484375 104.089844 3.160156 103.699219 4.480469 C 103.582031 4.871094 103.570312 5.738281 103.546875 16.375 C 103.53125 24.269531 103.554688 28.011719 103.605469 28.351562 C 103.792969 29.59375 104.5 30.449219 105.625 30.800781 C 106.160156 30.960938 107.046875 30.996094 107.613281 30.863281 C 108.640625 30.632812 109.4375 29.878906 109.761719 28.824219 C 109.890625 28.410156 109.898438 28.097656 109.898438 24.210938 L 109.898438 20.042969 L 113.355469 20.035156 C 116.980469 20.035156 117.03125 20.035156 118.183594 19.855469 C 120.84375 19.433594 123.160156 17.917969 124.375 15.796875 C 125.199219 14.359375 125.554688 12.917969 125.546875 11.003906 C 125.539062 8.4375 124.832031 6.417969 123.398438 4.886719 C 122.046875 3.433594 119.960938 2.511719 117.429688 2.257812 C 116.5625 2.164062 106.722656 2.164062 106.195312 2.25 Z M 116.300781 7.175781 C 117.171875 7.414062 117.757812 7.734375 118.261719 8.234375 C 119.015625 8.996094 119.355469 9.976562 119.28125 11.21875 C 119.195312 12.714844 118.414062 13.914062 117.105469 14.554688 C 116.121094 15.03125 115.902344 15.054688 112.757812 15.0625 L 109.933594 15.070312 L 109.914062 11.015625 L 109.898438 6.957031 L 112.808594 6.988281 C 115.527344 7.015625 115.757812 7.03125 116.300781 7.175781 Z M 116.300781 7.175781 "/>
<path style=" stroke:none;fill-rule:nonzero;fill:rgb(0%,0%,0%);fill-opacity:1;" d="M 157.671875 2.257812 C 156.789062 2.402344 156.09375 2.832031 155.667969 3.480469 C 155.347656 3.957031 155.210938 4.410156 155.109375 5.265625 C 155.074219 5.621094 155.007812 5.933594 154.972656 5.957031 C 154.921875 5.984375 154.90625 10 154.914062 17.328125 L 154.9375 28.648438 L 155.101562 29.070312 C 155.59375 30.277344 156.621094 30.945312 158.019531 30.945312 C 158.71875 30.945312 159.105469 30.863281 159.617188 30.601562 C 160.289062 30.261719 160.78125 29.695312 161.070312 28.917969 C 161.222656 28.511719 161.230469 28.417969 161.253906 23.980469 L 161.273438 19.457031 L 164.507812 19.476562 C 167.625 19.507812 167.757812 19.515625 168.226562 19.667969 C 169.132812 19.972656 169.796875 20.546875 170.203125 21.378906 C 170.613281 22.230469 170.875 23.804688 170.898438 25.601562 C 170.910156 26.863281 171 27.589844 171.214844 28.285156 C 171.742188 30.015625 173.058594 30.945312 174.832031 30.84375 C 176.605469 30.75 177.828125 29.566406 177.660156 28.121094 C 177.632812 27.902344 177.503906 27.277344 177.363281 26.734375 C 176.972656 25.179688 176.894531 24.554688 176.816406 22.738281 C 176.734375 20.699219 176.597656 19.914062 176.179688 19.0625 C 175.613281 17.921875 174.730469 17.304688 173.175781 16.957031 C 172.910156 16.898438 172.996094 16.828125 173.496094 16.667969 C 174.472656 16.355469 175.492188 15.644531 176.171875 14.792969 C 176.683594 14.160156 177.292969 12.898438 177.515625 12.019531 C 177.777344 11.015625 177.828125 9.609375 177.65625 8.5625 C 177.03125 4.808594 174.398438 2.671875 169.875 2.257812 C 168.878906 2.164062 158.226562 2.164062 157.671875 2.257812 Z M 168.957031 7.175781 C 169.269531 7.261719 169.679688 7.414062 169.875 7.523438 C 170.628906 7.9375 171.199219 8.738281 171.390625 9.660156 C 171.496094 10.167969 171.496094 11.511719 171.390625 11.960938 C 171.078125 13.253906 170.238281 14.074219 168.804688 14.472656 C 168.277344 14.617188 168.046875 14.625 164.796875 14.65625 L 161.339844 14.675781 L 161.339844 6.964844 L 164.871094 6.988281 C 168.226562 7.015625 168.421875 7.023438 168.957031 7.175781 Z M 168.957031 7.175781 "/>
<path style=" stroke:none;fill-rule:nonzero;fill:rgb(0%,0%,0%);fill-opacity:1;" d="M 181.183594 2.324219 C 180.207031 2.46875 179.425781 2.898438 179.015625 3.507812 C 178.71875 3.949219 178.632812 4.261719 178.632812 4.910156 C 178.632812 6.085938 179.261719 6.890625 180.519531 7.34375 C 180.96875 7.507812 181.082031 7.515625 183.679688 7.539062 L 186.371094 7.566406 L 186.371094 17.816406 C 186.371094 28.847656 186.367188 28.539062 186.742188 29.28125 C 187.109375 30 187.914062 30.601562 188.746094 30.785156 C 190.25 31.105469 191.761719 30.472656 192.371094 29.28125 C 192.753906 28.527344 192.738281 28.949219 192.738281 17.859375 L 192.738281 7.558594 L 195.472656 7.53125 C 198.398438 7.503906 198.425781 7.503906 199.222656 7.09375 C 199.640625 6.882812 200.15625 6.355469 200.3125 5.976562 C 200.589844 5.308594 200.566406 4.371094 200.261719 3.785156 C 200.054688 3.371094 199.539062 2.90625 199.046875 2.671875 C 198.195312 2.265625 198.253906 2.265625 189.554688 2.265625 C 185.15625 2.265625 181.394531 2.292969 181.183594 2.324219 Z M 181.183594 2.324219 "/>
<path style=" stroke:none;fill-rule:nonzero;fill:rgb(0%,0%,0%);fill-opacity:1;" d="M 27.3125 2.984375 C 23.824219 3.253906 20.902344 4.421875 18.085938 6.679688 C 17.34375 7.285156 16.089844 8.519531 12.878906 11.816406 C 11.183594 13.550781 10.585938 14.089844 9.550781 14.757812 C 7.953125 15.804688 6.511719 16.28125 4.71875 16.375 C 4.289062 16.40625 3.804688 16.472656 3.640625 16.527344 C 3.269531 16.667969 2.859375 17.101562 2.757812 17.480469 C 2.648438 17.871094 2.648438 28.539062 2.757812 28.941406 C 2.871094 29.347656 3.414062 29.878906 3.835938 29.992188 C 4.210938 30.09375 5.476562 30.042969 6.800781 29.878906 C 10.308594 29.425781 13.152344 28.121094 15.917969 25.695312 C 16.742188 24.976562 17.769531 23.929688 19.308594 22.257812 C 22 19.339844 23.253906 18.257812 24.882812 17.4375 C 25.988281 16.878906 27.476562 16.484375 28.527344 16.484375 C 29.433594 16.484375 30.039062 16.144531 30.292969 15.484375 C 30.414062 15.164062 30.421875 14.800781 30.421875 9.660156 L 30.421875 4.175781 L 30.265625 3.878906 C 30.054688 3.484375 29.589844 3.078125 29.25 2.984375 C 28.941406 2.898438 28.476562 2.898438 27.3125 2.984375 Z M 27.3125 2.984375 "/>
<path style=" stroke:none;fill-rule:nonzero;fill:rgb(0%,0%,0%);fill-opacity:1;" d="M 25.714844 18.621094 C 23.695312 19.085938 21.945312 20.601562 21.191406 22.542969 C 20.953125 23.160156 20.765625 24.15625 20.765625 24.792969 C 20.765625 26.8125 21.847656 28.859375 23.511719 29.992188 C 24.835938 30.894531 26.191406 31.222656 27.730469 31.011719 C 29.242188 30.808594 30.378906 30.242188 31.4375 29.152344 C 33.605469 26.921875 33.789062 23.421875 31.871094 20.914062 C 31.152344 19.980469 30.046875 19.203125 28.882812 18.808594 C 28.246094 18.589844 28.085938 18.570312 27.167969 18.546875 C 26.488281 18.527344 26.007812 18.554688 25.714844 18.621094 Z M 25.714844 18.621094 "/>
</g>
</svg>
