<?xml version="1.0" encoding="UTF-8"?>
<svg xmlns="http://www.w3.org/2000/svg" xmlns:xlink="http://www.w3.org/1999/xlink" width="201px" height="33px" viewBox="0 0 202 33" version="1.1">
<defs>
<filter id="alpha" filterUnits="objectBoundingBox" x="0%" y="0%" width="100%" height="100%">
  <feColorMatrix type="matrix" in="SourceGraphic" values="0 0 0 0 1 0 0 0 0 1 0 0 0 0 1 0 0 0 1 0"/>
</filter>
<mask id="mask0">
  <g filter="url(#alpha)">
<rect x="0" y="0" width="202" height="33" style="fill:rgb(0%,0%,0%);fill-opacity:0.996078;stroke:none;"/>
  </g>
</mask>
<clipPath id="clip1">
  <rect x="0" y="0" width="202" height="33"/>
</clipPath>
<g id="surface5" clip-path="url(#clip1)">
<path style=" stroke:none;fill-rule:evenodd;fill:rgb(60%,79.607843%,99.607843%);fill-opacity:1;" d="M 40.191406 1.054688 C 41.703125 0.851562 42.875 1.386719 43.699219 2.652344 C 43.898438 3.09375 44.019531 3.550781 44.0625 4.035156 C 44.109375 11.8125 44.109375 19.589844 44.0625 27.367188 C 43.816406 29.285156 42.730469 30.300781 40.804688 30.417969 C 39.089844 30.382812 38.027344 29.535156 37.621094 27.875 C 37.574219 19.78125 37.574219 11.691406 37.621094 3.597656 C 37.941406 2.199219 38.796875 1.347656 40.191406 1.054688 Z M 40.191406 1.054688 "/>
</g>
</defs>
<g id="surface1">
<use xlink:href="#surface5" mask="url(#mask0)"/>
<path style=" stroke:none;fill-rule:evenodd;fill:rgb(60%,79.607843%,99.607843%);fill-opacity:1;" d="M 52.707031 1.125 C 54.097656 0.984375 55.269531 1.417969 56.214844 2.433594 C 60.019531 8.601562 63.804688 14.78125 67.574219 20.96875 C 67.574219 15.03125 67.625 9.09375 67.71875 3.160156 C 68.097656 1.933594 68.929688 1.265625 70.214844 1.164062 C 72.472656 1.03125 73.652344 2.097656 73.761719 4.359375 C 73.761719 11.726562 73.761719 19.09375 73.761719 26.457031 C 73.8125 27.734375 73.402344 28.824219 72.53125 29.730469 C 72.101562 30.066406 71.621094 30.28125 71.082031 30.382812 C 70.089844 30.542969 69.101562 30.519531 68.117188 30.3125 C 67.59375 30.125 67.144531 29.824219 66.777344 29.402344 C 63 23.332031 59.234375 17.25 55.492188 11.15625 C 55.46875 16.707031 55.445312 22.253906 55.417969 27.804688 C 55.230469 29.375 54.347656 30.234375 52.777344 30.382812 C 51.542969 30.550781 50.542969 30.152344 49.777344 29.183594 C 49.53125 28.757812 49.386719 28.296875 49.34375 27.804688 C 49.316406 19.902344 49.292969 12.003906 49.269531 4.105469 C 49.425781 2.640625 50.210938 1.707031 51.621094 1.308594 C 51.996094 1.253906 52.355469 1.195312 52.707031 1.125 Z M 52.707031 1.125 "/>
<path style=" stroke:none;fill-rule:evenodd;fill:rgb(99.607843%,99.607843%,99.607843%);fill-opacity:1;" d="M 88.011719 1.34375 C 91.226562 1.316406 94.195312 2.203125 96.914062 3.996094 C 97.808594 4.679688 98.519531 5.515625 99.046875 6.503906 C 99.820312 8.472656 99.230469 9.816406 97.273438 10.539062 C 96.382812 10.785156 95.5625 10.640625 94.8125 10.105469 C 94.089844 9.304688 93.34375 8.527344 92.570312 7.777344 C 91.570312 7.011719 90.433594 6.578125 89.171875 6.46875 C 87.9375 6.332031 86.730469 6.453125 85.554688 6.832031 C 83.761719 7.660156 83.191406 9.003906 83.851562 10.867188 C 84.425781 11.523438 85.136719 11.972656 85.988281 12.210938 C 88.800781 12.898438 91.621094 13.554688 94.453125 14.175781 C 99.269531 15.671875 101.304688 18.929688 100.566406 23.949219 C 99.71875 27.003906 97.804688 29.050781 94.8125 30.09375 C 92.484375 30.8125 90.121094 31.078125 87.722656 30.890625 C 85.144531 30.785156 82.757812 30.054688 80.5625 28.710938 C 79.394531 27.886719 78.492188 26.832031 77.847656 25.550781 C 77.546875 24.777344 77.449219 23.976562 77.558594 23.152344 C 77.941406 21.84375 78.808594 21.140625 80.164062 21.042969 C 80.886719 21.097656 81.527344 21.363281 82.082031 21.84375 C 82.738281 22.585938 83.351562 23.363281 83.925781 24.167969 C 85.324219 25.609375 87.039062 26.289062 89.0625 26.203125 C 90.757812 26.273438 92.203125 25.714844 93.402344 24.53125 C 94.167969 23.460938 94.289062 22.324219 93.765625 21.117188 C 93.195312 20.335938 92.433594 19.839844 91.484375 19.625 C 88.804688 18.933594 86.128906 18.230469 83.457031 17.519531 C 78.640625 16.070312 76.699219 12.859375 77.632812 7.886719 C 78.171875 5.914062 79.292969 4.378906 80.996094 3.269531 C 83.183594 2.050781 85.523438 1.40625 88.011719 1.34375 Z M 88.011719 1.34375 "/>
<path style=" stroke:none;fill-rule:evenodd;fill:rgb(99.607843%,99.607843%,99.607843%);fill-opacity:1;" d="M 139.019531 1.34375 C 140.914062 1.304688 142.820312 1.605469 144.734375 2.253906 C 147.734375 3.519531 149.722656 5.714844 150.703125 8.832031 C 151.980469 13.5 152.003906 18.175781 150.777344 22.859375 C 149.058594 28.289062 145.34375 31.027344 139.632812 31.074219 C 132.28125 31.148438 128.226562 27.46875 127.480469 20.023438 C 127.195312 17.414062 127.195312 14.820312 127.480469 12.246094 C 127.746094 9.511719 128.710938 7.0625 130.375 4.90625 C 131.882812 3.273438 133.726562 2.21875 135.910156 1.746094 C 136.949219 1.542969 137.984375 1.410156 139.019531 1.34375 Z M 139.019531 6.578125 C 140.023438 6.550781 141.039062 6.707031 142.058594 7.050781 C 143.273438 7.59375 144.082031 8.5 144.480469 9.777344 C 144.800781 10.820312 144.992188 11.886719 145.0625 12.976562 C 145.25 15.769531 145.179688 18.554688 144.84375 21.332031 C 144.503906 23.929688 143.046875 25.371094 140.464844 25.660156 C 139.152344 25.8125 137.871094 25.664062 136.632812 25.222656 C 135.578125 24.742188 134.839844 23.957031 134.425781 22.859375 C 134.085938 21.847656 133.890625 20.804688 133.847656 19.734375 C 133.832031 18.964844 133.796875 18.203125 133.738281 17.445312 C 133.761719 16.117188 133.796875 14.699219 133.847656 13.191406 C 133.898438 11.972656 134.117188 10.785156 134.496094 9.632812 C 134.976562 8.253906 135.902344 7.347656 137.285156 6.90625 C 137.863281 6.742188 138.441406 6.632812 139.019531 6.578125 Z M 139.019531 6.578125 "/>
<path style=" stroke:none;fill-rule:evenodd;fill:rgb(99.607843%,99.607843%,99.607843%);fill-opacity:1;" d="M 106.460938 2.070312 C 109.960938 2.058594 113.457031 2.070312 116.953125 2.109375 C 118.957031 2.207031 120.792969 2.8125 122.453125 3.925781 C 124.515625 5.628906 125.578125 7.832031 125.636719 10.539062 C 125.519531 16.226562 122.636719 19.410156 116.988281 20.097656 C 114.652344 20.097656 112.300781 20.097656 109.933594 20.097656 C 109.949219 22.882812 109.933594 25.671875 109.898438 28.457031 C 109.3125 30.441406 107.996094 31.277344 105.957031 30.964844 C 104.648438 30.695312 103.839844 29.90625 103.53125 28.601562 C 103.414062 20.851562 103.386719 13.097656 103.460938 5.34375 C 103.554688 3.394531 104.554688 2.304688 106.460938 2.070312 Z M 109.933594 7.015625 C 111.695312 7.003906 113.457031 7.015625 115.214844 7.050781 C 118.226562 7.320312 119.515625 8.957031 119.085938 11.957031 C 118.59375 13.65625 117.472656 14.636719 115.722656 14.902344 C 115.464844 14.914062 115.210938 14.953125 114.964844 15.011719 C 113.316406 14.925781 111.664062 14.925781 110.007812 15.011719 C 109.933594 12.34375 109.910156 9.679688 109.933594 7.015625 Z M 109.933594 7.015625 "/>
<path style=" stroke:none;fill-rule:evenodd;fill:rgb(99.607843%,99.607843%,99.607843%);fill-opacity:1;" d="M 157.976562 2.070312 C 161.761719 2.058594 165.546875 2.070312 169.335938 2.109375 C 171.195312 2.164062 172.929688 2.648438 174.542969 3.5625 C 176.457031 4.855469 177.527344 6.660156 177.761719 8.976562 C 178.039062 11.582031 177.257812 13.796875 175.410156 15.628906 C 174.726562 16.191406 173.953125 16.601562 173.097656 16.863281 C 175.296875 17.304688 176.515625 18.648438 176.75 20.898438 C 176.816406 22.132812 176.886719 23.371094 176.96875 24.605469 C 177.09375 25.546875 177.3125 26.46875 177.617188 27.367188 C 177.992188 28.640625 177.644531 29.644531 176.570312 30.382812 C 175.339844 31.050781 174.085938 31.101562 172.808594 30.527344 C 171.417969 29.554688 170.765625 28.222656 170.851562 26.53125 C 170.867188 25.050781 170.707031 23.585938 170.382812 22.132812 C 169.953125 20.5625 168.929688 19.703125 167.308594 19.554688 C 165.308594 19.515625 163.304688 19.503906 161.304688 19.515625 C 161.316406 22.375 161.304688 25.234375 161.265625 28.09375 C 160.988281 29.972656 159.902344 30.964844 158.011719 31.074219 C 156.300781 31 155.238281 30.128906 154.828125 28.457031 C 154.769531 20.921875 154.78125 13.386719 154.863281 5.851562 C 154.964844 5.214844 155.097656 4.585938 155.261719 3.960938 C 155.8125 2.820312 156.71875 2.1875 157.976562 2.070312 Z M 161.375 7.015625 C 163.570312 7.003906 165.765625 7.015625 167.960938 7.050781 C 170.203125 7.222656 171.363281 8.433594 171.433594 10.683594 C 171.390625 13.101562 170.160156 14.386719 167.742188 14.539062 C 165.621094 14.574219 163.5 14.585938 161.375 14.574219 C 161.375 12.054688 161.375 9.535156 161.375 7.015625 Z M 161.375 7.015625 "/>
<path style=" stroke:none;fill-rule:evenodd;fill:rgb(99.215686%,99.215686%,99.215686%);fill-opacity:1;" d="M 181.488281 2.144531 C 186.832031 2.144531 192.171875 2.144531 197.515625 2.144531 C 198.789062 2.226562 199.753906 2.808594 200.410156 3.890625 C 200.832031 6.035156 199.949219 7.257812 197.765625 7.558594 C 196.128906 7.597656 194.488281 7.609375 192.847656 7.597656 C 192.859375 14.378906 192.847656 21.164062 192.8125 27.949219 C 192.519531 29.84375 191.421875 30.835938 189.519531 30.929688 C 188.113281 30.929688 187.113281 30.300781 186.515625 29.039062 C 186.421875 28.753906 186.351562 28.460938 186.300781 28.167969 C 186.265625 21.308594 186.25 14.453125 186.265625 7.597656 C 184.453125 7.628906 182.644531 7.589844 180.835938 7.488281 C 178.742188 6.894531 178.078125 5.574219 178.847656 3.523438 C 179.519531 2.660156 180.398438 2.199219 181.488281 2.144531 Z M 181.488281 2.144531 "/>
<path style=" stroke:none;fill-rule:evenodd;fill:rgb(59.607843%,79.607843%,99.607843%);fill-opacity:1;" d="M 28.035156 2.796875 C 29.398438 2.617188 30.21875 3.199219 30.496094 4.542969 C 30.414062 7.917969 30.414062 11.296875 30.496094 14.683594 C 30.488281 15.523438 30.101562 16.105469 29.335938 16.425781 C 27.125 16.445312 25.121094 17.097656 23.332031 18.390625 C 22.613281 18.917969 21.941406 19.5 21.308594 20.132812 C 19.621094 22.046875 17.859375 23.886719 16.027344 25.660156 C 12.511719 28.828125 8.390625 30.285156 3.652344 30.019531 C 3.121094 29.75 2.769531 29.324219 2.605469 28.746094 C 2.554688 25.039062 2.554688 21.332031 2.605469 17.625 C 2.777344 16.992188 3.175781 16.566406 3.796875 16.355469 C 6.148438 16.367188 8.269531 15.664062 10.164062 14.246094 C 10.636719 13.875 11.09375 13.488281 11.539062 13.082031 C 13.347656 11.21875 15.15625 9.351562 16.964844 7.488281 C 20.082031 4.566406 23.769531 3.003906 28.035156 2.796875 Z M 28.035156 2.796875 "/>
<path style=" stroke:none;fill-rule:evenodd;fill:rgb(99.607843%,99.607843%,99.607843%);fill-opacity:1;" d="M 26.226562 18.425781 C 29.289062 18.324219 31.472656 19.65625 32.773438 22.425781 C 33.796875 25.683594 32.917969 28.289062 30.132812 30.238281 C 27.15625 31.808594 24.492188 31.335938 22.140625 28.820312 C 20.292969 26.320312 20.195312 23.75 21.847656 21.117188 C 22.953125 19.632812 24.414062 18.738281 26.226562 18.425781 Z M 26.226562 18.425781 "/>
</g>
</svg>
